<svg width="448" height="872" viewBox="0 0 448 872" fill="none" xmlns="http://www.w3.org/2000/svg">
<g filter="url(#filter0_dd_1357_5782)">
<path fill-rule="evenodd" clip-rule="evenodd" d="M214.503 49.3236C214 51.6348 214 54.4232 214 60V116H80C53.6013 116 40.402 116 32.201 124.201C24 132.402 24 145.601 24 172V341C40.5685 341 54 354.431 54 371C54 387.569 40.5685 401 24 401V700C24 726.399 24 739.598 32.201 747.799C39.0521 754.65 49.3913 755.778 68 755.963V782C68 786.646 68 788.969 68.3496 790.906C69.9804 799.945 77.0549 807.02 86.0938 808.65C88.0313 809 90.3542 809 95 809C99.6458 809 101.969 809 103.906 808.65C112.945 807.02 120.02 799.945 121.65 790.906C122 788.969 122 786.646 122 782V757L122 756.478L122 756C122.002 751.081 122.031 748.492 122.503 746.324C124.334 737.907 130.907 731.334 139.324 729.503C141.635 729 144.423 729 150 729C155.577 729 158.365 729 160.676 729.503C169.093 731.334 175.666 737.907 177.497 746.324C177.969 748.492 177.998 751.081 178 756C178 756.323 178 756.656 178 757V787V812C178 817.577 178 820.365 178.503 822.676C180.334 831.093 186.907 837.666 195.324 839.497C197.635 840 200.423 840 206 840C211.577 840 214.365 840 216.676 839.497C225.093 837.666 231.666 831.093 233.497 822.676C234 820.365 234 817.577 234 812V756H368C394.399 756 407.598 756 415.799 747.799C424 739.598 424 726.399 424 700V401C407.431 401 394 387.569 394 371C394 354.431 407.431 341 424 341V172C424 145.601 424 132.402 415.799 124.201C408.948 117.35 398.609 116.222 380 116.037V90C380 85.3542 380 83.0313 379.65 81.0938C378.02 72.0549 370.945 64.9804 361.906 63.3496C359.969 63 357.646 63 353 63C348.354 63 346.031 63 344.094 63.3496C335.055 64.9804 327.98 72.0549 326.35 81.0938C326 83.0313 326 85.3542 326 90V107V116V137C326 142.577 326 145.365 325.497 147.676C323.666 156.093 317.093 162.666 308.676 164.497C306.365 165 303.577 165 298 165C292.423 165 289.635 165 287.324 164.497C278.907 162.666 272.334 156.093 270.503 147.676C270 145.365 270 142.577 270 137V116V107V60C270 54.4232 270 51.6348 269.497 49.3236C267.666 40.9074 261.093 34.3336 252.676 32.5028C250.365 32 247.577 32 242 32C236.423 32 233.635 32 231.324 32.5028C222.907 34.3336 216.334 40.9074 214.503 49.3236Z" fill="url(#paint0_linear_1357_5782)"/>
</g>
<defs>
<filter id="filter0_dd_1357_5782" x="0" y="0" width="448" height="872" filterUnits="userSpaceOnUse" color-interpolation-filters="sRGB">
<feFlood flood-opacity="0" result="BackgroundImageFix"/>
<feColorMatrix in="SourceAlpha" type="matrix" values="0 0 0 0 0 0 0 0 0 0 0 0 0 0 0 0 0 0 127 0" result="hardAlpha"/>
<feOffset dy="8"/>
<feGaussianBlur stdDeviation="12"/>
<feComposite in2="hardAlpha" operator="out"/>
<feColorMatrix type="matrix" values="0 0 0 0 0.133333 0 0 0 0 0.556863 0 0 0 0 0.898039 0 0 0 0.16 0"/>
<feBlend mode="normal" in2="BackgroundImageFix" result="effect1_dropShadow_1357_5782"/>
<feColorMatrix in="SourceAlpha" type="matrix" values="0 0 0 0 0 0 0 0 0 0 0 0 0 0 0 0 0 0 127 0" result="hardAlpha"/>
<feOffset dy="-8"/>
<feGaussianBlur stdDeviation="12"/>
<feComposite in2="hardAlpha" operator="out"/>
<feColorMatrix type="matrix" values="0 0 0 0 0.133333 0 0 0 0 0.556863 0 0 0 0 0.898039 0 0 0 0.16 0"/>
<feBlend mode="normal" in2="effect1_dropShadow_1357_5782" result="effect2_dropShadow_1357_5782"/>
<feBlend mode="normal" in="SourceGraphic" in2="effect2_dropShadow_1357_5782" result="shape"/>
</filter>
<linearGradient id="paint0_linear_1357_5782" x1="224" y1="32" x2="224" y2="840" gradientUnits="userSpaceOnUse">
<stop stop-color="#0CC2FF"/>
<stop offset="1" stop-color="#275EE7"/>
</linearGradient>
</defs>
</svg>
